<svg version="1.0" xmlns="http://www.w3.org/2000/svg"
 width="200.000000pt" height="200.000000pt" viewBox="0 0 200.000000 200.000000"
 preserveAspectRatio="xMidYMid meet">

<g transform="translate(0.000000,200.000000) scale(0.100000,-0.100000)"
fill="#000000" stroke="none">
<path d="M0 1000 l0 -1000 1000 0 1000 0 0 1000 0 1000 -1000 0 -1000 0 0
-1000z m1820 0 l0 -820 -820 0 -820 0 0 820 0 820 820 0 820 0 0 -820z"/>
<path d="M614 1236 c-27 -13 -67 -43 -87 -66 l-37 -44 0 57 0 57 -50 0 -49 0
-3 -250 -3 -250 58 0 57 0 0 138 c0 123 3 141 23 177 27 48 77 83 129 91 26 5
38 12 38 23 0 9 3 33 6 54 6 32 4 37 -12 37 -11 0 -42 -11 -70 -24z"/>
<path d="M1069 1235 c-26 -13 -63 -43 -83 -66 l-36 -43 0 57 0 57 -55 0 -55 0
0 -250 0 -250 59 0 60 0 3 148 c3 146 3 149 32 186 29 39 94 75 134 76 19 0
22 5 22 39 0 22 3 46 6 55 9 24 -32 20 -87 -9z"/>
<path d="M1532 1238 c-23 -11 -60 -41 -82 -66 l-40 -45 0 41 c0 65 -6 72 -61
72 l-49 0 0 -250 0 -250 59 0 60 0 3 149 c3 133 5 153 24 178 30 40 81 72 126
79 l38 7 0 53 c0 63 -8 66 -78 32z"/>
</g>
</svg>
