<svg version="1.0" xmlns="http://www.w3.org/2000/svg"
 width="200.000000pt" height="200.000000pt" viewBox="0 0 200.000000 200.000000"
 preserveAspectRatio="xMidYMid meet">

<g transform="translate(0.000000,200.000000) scale(0.100000,-0.100000)"
fill="#000000" stroke="none">
<path d="M578 1313 c226 -2 598 -2 825 0 226 1 41 2 -413 2 -454 0 -639 -1
-412 -2z"/>
<path d="M291 1212 c17 -12 19 -30 19 -217 0 -184 -2 -205 -17 -214 -14 -8 -4
-10 40 -11 53 0 57 1 43 16 -12 12 -16 38 -16 115 l0 99 39 0 c36 0 40 -3 86
-72 26 -40 63 -92 82 -115 32 -41 37 -43 86 -43 l52 0 -30 19 c-40 25 -82 71
-143 157 l-50 72 29 28 c16 15 34 45 41 66 14 46 -6 82 -57 104 -46 19 -231
15 -204 -4z m163 -3 c40 -18 58 -96 37 -152 -12 -30 -67 -51 -106 -41 l-27 7
4 89 c2 65 7 91 18 98 20 13 44 12 74 -1z"/>
<path d="M790 1218 c0 -5 5 -8 10 -8 15 0 13 -413 -2 -428 -9 -9 0 -12 42 -12
42 0 51 3 42 12 -8 8 -12 48 -12 115 l0 103 38 0 c35 -1 39 -5 79 -69 23 -37
61 -89 84 -114 39 -45 43 -47 92 -47 l52 0 -34 17 c-33 16 -123 121 -170 197
l-23 37 21 15 c28 20 51 66 51 101 0 41 -25 71 -70 83 -43 11 -200 10 -200 -2z
m185 -23 c21 -20 25 -34 25 -83 0 -65 -13 -84 -63 -96 -60 -14 -67 -4 -67 93
0 54 4 91 12 99 20 20 67 14 93 -13z"/>
<path d="M1294 1215 c20 -10 21 -20 24 -212 2 -173 0 -203 -14 -217 -14 -15
-11 -16 41 -16 51 0 55 1 41 16 -12 12 -16 38 -16 115 l0 99 39 0 c37 0 41 -3
78 -62 22 -35 59 -87 82 -115 41 -52 43 -53 94 -53 l52 0 -30 19 c-36 22 -94
86 -152 169 l-42 59 30 29 c16 15 34 45 41 66 9 31 8 41 -6 63 -28 42 -71 54
-183 52 -76 -2 -94 -4 -79 -12z m181 -18 c32 -27 44 -92 25 -137 -14 -33 -65
-54 -107 -44 -22 6 -23 11 -23 89 0 63 4 88 16 99 22 23 59 20 89 -7z"/>
</g>
</svg>
